<?xml version="1.0" encoding="utf-8"?>
<!-- Generator: Adobe Illustrator 22.0.1, SVG Export Plug-In . SVG Version: 6.00 Build 0)  -->
<svg version="1.1" id="Layer_1" xmlns="http://www.w3.org/2000/svg" xmlns:xlink="http://www.w3.org/1999/xlink" x="0px" y="0px"
	 viewBox="0 0 516 441.9" style="enable-background:new 0 0 516 441.9;" xml:space="preserve">
<style type="text/css">
	.st0{fill:#FFFFFF;}
</style>
<path class="st0" d="M281.5,8.6l-0.8,0.8c9.4-9.4,16.6-13.4,25.9-4L509,203.7c9.4,9.4,9.4,24.6,0,33.9l-202.1,196
	c-9.4,9.4-14.9,11.7-24.2,2.3l0.8,0.8c-9.5-9.5-14.3-18-4.6-27.3l185.9-172.1L16,236.7c-13.3,0-16-5.7-16-19v5c0-13.3,2.7-19,16-19
	l448.3,0.3L281.9,34.9C272.1,25.6,271.9,18.1,281.5,8.6z"/>
</svg>
