<?xml version="1.0" encoding="utf-8"?>
<!-- Generator: Adobe Illustrator 22.0.1, SVG Export Plug-In . SVG Version: 6.00 Build 0)  -->
<svg version="1.1" id="Layer_1" xmlns="http://www.w3.org/2000/svg" xmlns:xlink="http://www.w3.org/1999/xlink" x="0px" y="0px"
	 viewBox="0 0 1467.2 752" style="enable-background:new 0 0 1467.2 752;" xml:space="preserve">
<style type="text/css">
	.st0{fill:none;stroke:#000000;stroke-width:3;stroke-opacity:0.41;}
</style>
<desc>Created with Sketch.</desc>
<g id="Welcome">
	<g id="Desktop-HD" transform="translate(0.000000, -1480.000000)">
		<g id="Asset-2" transform="translate(-70.000000, 1482.000000)">
			<path id="Shape" class="st0" d="M309.8,13.1L88.1,396.3c-4.8,8.3-4.8,18.5,0,26.8c4.8,8.3,13.7,13.4,23.3,13.4h443.3
				c9.6,0,18.5-5.1,23.3-13.4c4.8-8.3,4.8-18.5,0-26.8L356.5,13.1c-4.8-8.4-13.7-13.6-23.3-13.6C323.5-0.5,314.6,4.7,309.8,13.1z"/>
			<path id="Shape-Copy" class="st0" d="M296.8,13.1L75.1,396.3c-4.8,8.3-4.8,18.5,0,26.8c4.8,8.3,13.7,13.4,23.3,13.4h443.3
				c9.6,0,18.5-5.1,23.3-13.4c4.8-8.3,4.8-18.5,0-26.8L343.5,13.1c-4.8-8.4-13.7-13.6-23.3-13.6C310.5-0.5,301.6,4.7,296.8,13.1z"/>
			<path id="Shape-Copy-3" class="st0" d="M529.8,734.9L308.1,351.7c-4.8-8.3-4.8-18.5,0-26.8c4.8-8.3,13.7-13.4,23.3-13.4h443.3
				c9.6,0,18.5,5.1,23.3,13.4c4.8,8.3,4.8,18.5,0,26.8L576.5,734.9c-4.8,8.4-13.7,13.6-23.3,13.6
				C543.5,748.5,534.6,743.3,529.8,734.9z"/>
			<path id="Shape-Copy-2" class="st0" d="M516.8,734.9L295.1,351.7c-4.8-8.3-4.8-18.5,0-26.8c4.8-8.3,13.7-13.4,23.3-13.4h443.3
				c9.6,0,18.5,5.1,23.3,13.4c4.8,8.3,4.8,18.5,0,26.8L563.5,734.9c-4.8,8.4-13.7,13.6-23.3,13.6
				C530.5,748.5,521.6,743.3,516.8,734.9z"/>
			<path id="Shape-Copy-5" class="st0" d="M1462.5,438.9l-189.2,152.9c-4.1,3.3-6.1,8.6-5.3,13.8s4.4,9.6,9.3,11.4l227.3,87.3
				c4.9,1.9,10.5,1,14.6-2.3c4.1-3.3,6.1-8.6,5.3-13.7L1486.4,448c-0.8-5.2-4.3-9.6-9.3-11.5
				C1472.2,434.6,1466.6,435.5,1462.5,438.9z"/>
			<path id="Shape-Copy-4" class="st0" d="M1473.5,442.9l-189.2,152.9c-4.1,3.3-6.1,8.6-5.3,13.8s4.4,9.6,9.3,11.4l227.3,87.3
				c4.9,1.9,10.5,1,14.6-2.3c4.1-3.3,6.1-8.6,5.3-13.7L1497.4,452c-0.8-5.2-4.3-9.6-9.3-11.5
				C1483.2,438.6,1477.6,439.5,1473.5,442.9z"/>
		</g>
	</g>
</g>
</svg>
